# xmcd
#
# Track frame offsets:
#	150
#	14745
#	41762
#	56933
#	72508
#	89559
#	108713
#	134879
#	153968
#	173396
#
# Disc length: 2518 seconds
#
# Revision: 0
# Processed by: cddbd v1.5.2PL0 Copyright (c) Steve Scherf et al.
# Submitted via: EasyCDDAExtractor 16.0.9.1
#
DISCID=9609d40a
DTITLE=Thu Hiền and Trung Đức - BHTCD: Nắng Ấm Quê Hương
DYEAR=2007
DGENRE=Country
TTITLE0=Trung Đức - Chiếc Gậy Trường Sơn (Phạm Tuyên)
TTITLE1=Thu Hiền and Trung Đức - Về Quê (Phó Đức Phương)
TTITLE2=Trung Đức - Ta Ra Trận Hôm Nay (Văn An)
TTITLE3=Thu Hiền and Trung Đức - Nhịp Cầu Nối Những Bờ Vui (Nhạc: Văn An, Trích 
TTITLE3=Thơ: Phan Văn Từ)
TTITLE4=Trung Đức - Hà Tây Quê Lụa (Nhật Lai)
TTITLE5=Thu Hiền and Trung Đức - Hoa Cau Vườn Trầu (Nguyễn Tiến)
TTITLE6=Trung Đức - Chào Sông Mã Anh Hùng (Xuân Giao)
TTITLE7=Thu Hiền and Trung Đức - Nắng Ấm Quê Hương (Vĩnh An)
TTITLE8=Trung Đức - Trên Đỉnh Trường Sơn (Huy Du)
TTITLE9=Thu Hiền and Trung Đức - Hát Mừng Các Cụ Dân Quân (Đỗ Nhuận)
EXTD=
EXTT0=
EXTT1=
EXTT2=
EXTT3=
EXTT4=
EXTT5=
EXTT6=
EXTT7=
EXTT8=
EXTT9=
PLAYORDER=
